<?xml version="1.0" encoding="UTF-8"?> <svg xmlns="http://www.w3.org/2000/svg" width="38" height="39" viewBox="0 0 38 39" fill="none"><rect y="0.5" width="38" height="38" rx="2" fill="white"></rect><path d="M9.15467 28.5C8.54044 28.5 8.028 28.302 7.61733 27.906C7.20667 27.51 7.00089 27.0154 7 26.4223V12.5777C7 11.9854 7.20578 11.4913 7.61733 11.0953C8.02889 10.6993 8.54089 10.5009 9.15333 10.5H28.8467C29.46 10.5 29.972 10.6984 30.3827 11.0953C30.7933 11.4921 30.9991 11.9863 31 12.5777V26.4236C31 27.015 30.7942 27.5091 30.3827 27.906C29.9711 28.3029 29.4591 28.5009 28.8467 28.5H9.15467ZM19 19.6491L8.33333 12.9236V26.4236C8.33333 26.6541 8.41022 26.8436 8.564 26.9919C8.71778 27.1401 8.91467 27.2143 9.15467 27.2143H28.8467C29.0858 27.2143 29.2822 27.1401 29.436 26.9919C29.5898 26.8436 29.6667 26.6537 29.6667 26.4223V12.9223L19 19.6491ZM19 18.2143L29.256 11.7857H8.744L19 18.2143ZM8.33333 12.9236V11.7857V26.4236C8.33333 26.6541 8.41022 26.8436 8.564 26.9919C8.71778 27.1401 8.91467 27.2143 9.15467 27.2143H8.33333V12.9236Z" fill="#20BFDA"></path></svg> 