<?xml version="1.0" encoding="UTF-8"?> <svg xmlns="http://www.w3.org/2000/svg" width="277" height="46" viewBox="0 0 277 46" fill="none"><path d="M73 6H69.2998V3.7002H30.7002V42.2998H69.2998V10H73V46H27V0H73V6Z" fill="#20BFDA"></path><path d="M30.65 5V41H26.95V8.5H12L9.6 28.9C9.4 30.8 9.11667 32.4167 8.75 33.75C8.41667 35.0833 7.9 36.35 7.2 37.55C6.5 38.75 5.55 39.65 4.35 40.25C3.15 40.8167 1.7 41.0667 0 41V37.6C2.1 37.5667 3.55 36.8167 4.35 35.35C5.18333 33.8833 5.8 31.5167 6.2 28.25L8.95 5H30.65Z" fill="#272727"></path><path d="M38.3563 36.75H42.6063V41H38.3563V36.75Z" fill="black"></path><path d="M38.6921 34V6.30951H42.8649L52.4412 25.9236L62.0175 6.30951H66.1903V34H61.8637V16.2512L53.3643 34H51.5182L43.038 16.2512V34H38.6921Z" fill="#676767"></path><path d="M94.421 2.45957V20H92.6182V4.16489H85.334L84.1647 14.1045C84.0672 15.0302 83.9292 15.8179 83.7505 16.4676C83.5881 17.1172 83.3364 17.7344 82.9953 18.319C82.6543 18.9037 82.1914 19.3422 81.6067 19.6346C81.022 19.9107 80.3155 20.0325 79.4872 20V18.3434C80.5104 18.3272 81.2169 17.9617 81.6067 17.2471C82.0127 16.5325 82.3132 15.3794 82.5081 13.7878L83.848 2.45957H94.421ZM109.212 20L108.018 16.5406H99.6861L98.4924 20H96.6166L102.658 2.45957H105.046L111.087 20H109.212ZM100.271 14.8597H107.433L103.828 4.48159L100.271 14.8597ZM124.724 11.0593C125.601 12.0987 126.039 13.268 126.039 14.5673C126.039 15.9803 125.544 17.2065 124.553 18.246C123.952 18.9118 123.238 19.3828 122.41 19.6589C121.809 19.8863 121.2 20 120.582 20H113.274V2.45957H124.602V4.16489H115.052V9.13468H120.582C121.378 9.13468 122.142 9.30521 122.872 9.64627C123.619 9.98734 124.237 10.4583 124.724 11.0593ZM124.188 14.5673C124.204 13.7228 123.92 12.9351 123.335 12.2043C122.604 11.2947 121.679 10.84 120.558 10.84H115.052V18.2703H120.558C121.565 18.2703 122.418 17.9049 123.116 17.174C123.798 16.4594 124.155 15.5905 124.188 14.5673ZM135.984 20.3654C133.271 20.3654 131.217 19.4316 129.82 17.5638C128.569 15.956 127.928 13.8446 127.895 11.2298C127.895 8.64744 128.537 6.5361 129.82 4.89574C130.518 3.97 131.412 3.27163 132.5 2.80063C133.588 2.3134 134.749 2.08602 135.984 2.11851C138.68 2.15099 140.742 3.07673 142.171 4.89574C143.373 6.43865 144.007 8.55 144.072 11.2298C144.072 13.8121 143.438 15.9235 142.171 17.5638C140.71 19.4316 138.647 20.3654 135.984 20.3654ZM135.984 18.6357C136.942 18.6357 137.835 18.4571 138.663 18.0998C139.508 17.7262 140.19 17.1822 140.71 16.4676C141.652 15.2332 142.139 13.4873 142.171 11.2298C142.171 9.00475 141.684 7.26695 140.71 6.01638C140.19 5.30177 139.508 4.75769 138.663 4.38414C137.819 3.99436 136.926 3.80758 135.984 3.82382C135.025 3.84007 134.124 4.03496 133.279 4.40851C132.435 4.78205 131.761 5.31801 131.257 6.01638C130.315 7.20198 129.828 8.93978 129.796 11.2298C129.796 13.4711 130.283 15.217 131.257 16.4676C131.761 17.1822 132.435 17.7262 133.279 18.0998C134.14 18.4733 135.042 18.652 135.984 18.6357ZM158.104 4.21361C159.095 5.25305 159.59 6.47925 159.59 7.89223C159.59 9.19152 159.152 10.3609 158.275 11.4003C157.787 12.0012 157.17 12.4722 156.423 12.8133C155.692 13.1544 154.929 13.3249 154.133 13.3249H148.603V20H146.825V2.45957H154.133C154.75 2.45957 155.359 2.57326 155.96 2.80063C156.788 3.07673 157.503 3.54773 158.104 4.21361ZM156.886 10.2553C157.471 9.52447 157.755 8.73677 157.739 7.89223C157.706 6.86904 157.349 6.00014 156.667 5.28553C155.968 4.55468 155.116 4.18925 154.109 4.18925H148.603V11.6196H154.109C155.229 11.6196 156.155 11.1648 156.886 10.2553ZM173.481 20L172.287 16.5406H163.955L162.762 20H160.886L166.927 2.45957H169.315L175.357 20H173.481ZM164.54 14.8597H171.702L168.097 4.48159L164.54 14.8597ZM189.156 2.45957V4.16489H183.017V20H181.238V4.16489H175.099V2.45957H189.156ZM198.54 20.3654C195.828 20.3654 193.773 19.4316 192.376 17.5638C191.126 15.956 190.484 13.8446 190.452 11.2298C190.452 8.64744 191.093 6.5361 192.376 4.89574C193.075 3.97 193.968 3.27163 195.056 2.80063C196.144 2.3134 197.306 2.08602 198.54 2.11851C201.236 2.15099 203.299 3.07673 204.728 4.89574C205.93 6.43865 206.563 8.55 206.628 11.2298C206.628 13.8121 205.995 15.9235 204.728 17.5638C203.266 19.4316 201.203 20.3654 198.54 20.3654ZM198.54 18.6357C199.498 18.6357 200.391 18.4571 201.22 18.0998C202.064 17.7262 202.746 17.1822 203.266 16.4676C204.208 15.2332 204.695 13.4873 204.728 11.2298C204.728 9.00475 204.24 7.26695 203.266 6.01638C202.746 5.30177 202.064 4.75769 201.22 4.38414C200.375 3.99436 199.482 3.80758 198.54 3.82382C197.582 3.84007 196.68 4.03496 195.836 4.40851C194.991 4.78205 194.317 5.31801 193.814 6.01638C192.872 7.20198 192.384 8.93978 192.352 11.2298C192.352 13.4711 192.839 15.217 193.814 16.4676C194.317 17.1822 194.991 17.7262 195.836 18.0998C196.696 18.4733 197.598 18.652 198.54 18.6357ZM220.66 4.21361C221.651 5.25305 222.146 6.47925 222.146 7.89223C222.146 9.19152 221.708 10.3609 220.831 11.4003C220.344 12.0012 219.726 12.4722 218.979 12.8133C218.248 13.1544 217.485 13.3249 216.689 13.3249H211.159V20H209.381V2.45957H216.689C217.306 2.45957 217.916 2.57326 218.516 2.80063C219.345 3.07673 220.059 3.54773 220.66 4.21361ZM219.442 10.2553C220.027 9.52447 220.311 8.73677 220.295 7.89223C220.262 6.86904 219.905 6.00014 219.223 5.28553C218.525 4.55468 217.672 4.18925 216.665 4.18925H211.159V11.6196H216.665C217.786 11.6196 218.711 11.1648 219.442 10.2553ZM236.135 2.45957H237.937V20H236.135V13.3493H226.439V20H224.66V2.45957H226.439V11.6439H236.135V2.45957ZM252.732 20L251.539 16.5406H243.207L242.013 20H240.137L246.179 2.45957H248.567L254.608 20H252.732ZM243.792 14.8597H250.954L247.349 4.48159L243.792 14.8597ZM269.56 2.45957V20H267.782V13.3249H262.252C262.073 13.3249 261.943 13.3168 261.862 13.3005L258.622 20H256.551L260.035 12.8377C259.304 12.5291 258.663 12.05 258.11 11.4003C257.233 10.3609 256.795 9.19152 256.795 7.89223C256.795 6.47925 257.29 5.25305 258.281 4.21361C258.882 3.54773 259.596 3.07673 260.425 2.80063C261.026 2.57326 261.635 2.45957 262.252 2.45957H269.56ZM267.782 11.6196V4.18925H262.276C261.269 4.18925 260.417 4.55468 259.718 5.28553C259.036 6.00014 258.679 6.86904 258.646 7.89223C258.63 8.73677 258.914 9.52447 259.499 10.2553C260.23 11.1648 261.156 11.6196 262.276 11.6196H267.782Z" fill="#676767"></path><path d="M80.6371 43V26.1612H82.8472L88.9513 38.8254L95.0203 26.1612H97.2537V42.9883H94.9384V31.4701L89.5009 43H88.39L82.9407 31.4701V43H80.6371ZM100.53 43V26.1612H111.288V28.4648H102.974V33.1891H109.885V35.4927H102.974V40.6964H111.288V43H100.53ZM114.096 43V26.1612H125.077V28.4648H116.54V32.5225H120.902C121.058 32.5225 121.257 32.5303 121.498 32.5459C121.748 32.5537 121.982 32.5732 122.2 32.6044C123.112 32.7135 123.88 33.0098 124.504 33.4931C125.135 33.9764 125.611 34.5884 125.93 35.329C126.258 36.0696 126.421 36.8803 126.421 37.7613C126.421 38.6422 126.262 39.4529 125.942 40.1935C125.622 40.9341 125.147 41.5461 124.515 42.0294C123.892 42.5128 123.12 42.809 122.2 42.9181C121.982 42.9493 121.752 42.9727 121.51 42.9883C121.268 42.9961 121.066 43 120.902 43H114.096ZM116.54 40.6964H120.809C120.964 40.6964 121.136 40.6886 121.323 40.673C121.518 40.6574 121.701 40.634 121.873 40.6028C122.629 40.4469 123.159 40.0883 123.463 39.527C123.775 38.9657 123.931 38.3771 123.931 37.7613C123.931 37.1376 123.775 36.549 123.463 35.9955C123.159 35.4342 122.629 35.0756 121.873 34.9197C121.701 34.8807 121.518 34.8573 121.323 34.8495C121.136 34.834 120.964 34.8262 120.809 34.8262H116.54V40.6964ZM128.759 43V26.1612H139.517V28.4648H131.203V33.1891H138.114V35.4927H131.203V40.6964H139.517V43H128.759ZM141.156 43V40.9068C141.554 40.9458 141.881 40.9263 142.138 40.8484C142.403 40.7626 142.626 40.5989 142.805 40.3572C142.984 40.1078 143.136 39.7492 143.261 39.2814C143.394 38.8137 143.522 38.2095 143.647 37.4689C143.818 36.5256 143.963 35.5551 144.08 34.5572C144.196 33.5594 144.294 32.5693 144.372 31.587C144.458 30.597 144.528 29.642 144.582 28.7221C144.637 27.8022 144.68 26.9486 144.711 26.1612H155.761V43H153.318V28.4648H147.003C146.964 29.0885 146.917 29.7862 146.863 30.558C146.808 31.3298 146.742 32.1483 146.664 33.0136C146.586 33.879 146.488 34.7716 146.372 35.6915C146.262 36.6114 146.122 37.5352 145.951 38.4629C145.81 39.258 145.639 39.9753 145.436 40.6145C145.233 41.2538 144.96 41.7878 144.617 42.2165C144.274 42.6375 143.826 42.9181 143.273 43.0585C142.719 43.2066 142.014 43.1871 141.156 43ZM159.032 43V26.1612H161.476V32.2068H165.838C165.994 32.2068 166.192 32.2146 166.434 32.2302C166.684 32.238 166.914 32.2614 167.124 32.3003C168.06 32.4485 168.839 32.7681 169.463 33.2592C170.094 33.7503 170.566 34.3701 170.878 35.1185C171.197 35.8669 171.357 36.6971 171.357 37.6092C171.357 38.5135 171.201 39.3399 170.889 40.0883C170.578 40.8367 170.106 41.4564 169.474 41.9476C168.851 42.4387 168.067 42.7583 167.124 42.9065C166.914 42.9376 166.687 42.961 166.446 42.9766C166.204 42.9922 166.001 43 165.838 43H159.032ZM161.476 40.6964H165.744C165.892 40.6964 166.06 40.6886 166.247 40.673C166.442 40.6574 166.625 40.6262 166.797 40.5794C167.303 40.4625 167.705 40.2481 168.001 39.9363C168.305 39.6166 168.523 39.2541 168.656 38.8488C168.796 38.4356 168.866 38.0224 168.866 37.6092C168.866 37.1961 168.796 36.7829 168.656 36.3697C168.523 35.9565 168.305 35.594 168.001 35.2822C167.705 34.9626 167.303 34.7443 166.797 34.6274C166.625 34.5806 166.442 34.5533 166.247 34.5455C166.06 34.5299 165.892 34.5221 165.744 34.5221H161.476V40.6964Z" fill="#20BFDA"></path></svg> 