<?xml version="1.0" encoding="UTF-8"?> <svg xmlns="http://www.w3.org/2000/svg" width="24" height="19" viewBox="0 0 24 19" fill="none"><path d="M2.15467 18.5C1.54044 18.5 1.028 18.302 0.617333 17.906C0.206667 17.51 0.000888889 17.0154 0 16.4223V2.57771C0 1.98543 0.205778 1.49129 0.617333 1.09529C1.02889 0.699285 1.54089 0.500857 2.15333 0.5H21.8467C22.46 0.5 22.972 0.698428 23.3827 1.09529C23.7933 1.49214 23.9991 1.98629 24 2.57771V16.4236C24 17.015 23.7942 17.5091 23.3827 17.906C22.9711 18.3029 22.4591 18.5009 21.8467 18.5H2.15467ZM12 9.64914L1.33333 2.92357V16.4236C1.33333 16.6541 1.41022 16.8436 1.564 16.9919C1.71778 17.1401 1.91467 17.2143 2.15467 17.2143H21.8467C22.0858 17.2143 22.2822 17.1401 22.436 16.9919C22.5898 16.8436 22.6667 16.6537 22.6667 16.4223V2.92229L12 9.64914ZM12 8.21428L22.256 1.78571H1.744L12 8.21428ZM1.33333 2.92357V1.78571V16.4236C1.33333 16.6541 1.41022 16.8436 1.564 16.9919C1.71778 17.1401 1.91467 17.2143 2.15467 17.2143H1.33333V2.92357Z" fill="#20BFDA"></path></svg> 