<?xml version="1.0" encoding="UTF-8"?> <svg xmlns="http://www.w3.org/2000/svg" width="39" height="39" viewBox="0 0 39 39" fill="none"><rect x="0.5" y="0.5" width="38" height="38" rx="2" fill="white"></rect><path d="M29.6053 31.5C30.1078 31.5 30.5897 31.3004 30.945 30.945C31.3004 30.5897 31.5 30.1078 31.5 29.6053V25.1842C31.5 24.6817 31.3004 24.1998 30.945 23.8444C30.5897 23.4891 30.1078 23.2895 29.6053 23.2895C28.1274 23.2895 26.6747 23.0621 25.2853 22.5947C24.9531 22.4899 24.5985 22.478 24.26 22.5604C23.9215 22.6428 23.6121 22.8163 23.3653 23.0621L21.5463 24.8811C18.4039 23.1662 15.8212 20.5835 14.1063 17.4411L15.9126 15.6347C16.4305 15.1421 16.62 14.4095 16.3926 13.7021C15.9379 12.3253 15.7105 10.8726 15.7105 9.39474C15.7105 8.89222 15.5109 8.41029 15.1556 8.05496C14.8002 7.69962 14.3183 7.5 13.8158 7.5H9.39474C8.89222 7.5 8.41029 7.69962 8.05496 8.05496C7.69962 8.41029 7.5 8.89222 7.5 9.39474C7.5 21.5842 17.4158 31.5 29.6053 31.5ZM9.39474 8.76316H13.8158C13.9833 8.76316 14.1439 8.8297 14.2624 8.94814C14.3808 9.06659 14.4474 9.22723 14.4474 9.39474C14.4474 11.0116 14.7 12.5905 15.1926 14.0937C15.2558 14.2705 15.2432 14.5232 15.0411 14.7253L12.5526 17.2011C14.6368 21.2811 17.6937 24.3379 21.7863 26.4474L24.2495 23.9589C24.4263 23.7821 24.6663 23.7316 24.8937 23.7947C26.4095 24.3 27.9884 24.5526 29.6053 24.5526C29.7728 24.5526 29.9334 24.6192 30.0519 24.7376C30.1703 24.8561 30.2368 25.0167 30.2368 25.1842V29.6053C30.2368 29.7728 30.1703 29.9334 30.0519 30.0519C29.9334 30.1703 29.7728 30.2368 29.6053 30.2368C18.1105 30.2368 8.76316 20.8895 8.76316 9.39474C8.76316 9.22723 8.8297 9.06659 8.94814 8.94814C9.06659 8.8297 9.22723 8.76316 9.39474 8.76316Z" fill="#20BFDA"></path></svg> 