<?xml version="1.0" encoding="UTF-8"?> <svg xmlns="http://www.w3.org/2000/svg" width="25" height="25" viewBox="0 0 25 25" fill="none"><path d="M22.6053 24.5C23.1078 24.5 23.5897 24.3004 23.945 23.945C24.3004 23.5897 24.5 23.1078 24.5 22.6053V18.1842C24.5 17.6817 24.3004 17.1998 23.945 16.8444C23.5897 16.4891 23.1078 16.2895 22.6053 16.2895C21.1274 16.2895 19.6747 16.0621 18.2853 15.5947C17.9531 15.4899 17.5985 15.478 17.26 15.5604C16.9215 15.6428 16.6121 15.8163 16.3653 16.0621L14.5463 17.8811C11.4039 16.1662 8.82116 13.5835 7.10632 10.4411L8.91263 8.63474C9.43053 8.1421 9.62 7.40947 9.39263 6.70211C8.93789 5.32526 8.71053 3.87263 8.71053 2.39474C8.71053 1.89222 8.5109 1.41029 8.15557 1.05496C7.80024 0.699624 7.3183 0.5 6.81579 0.5H2.39474C1.89222 0.5 1.41029 0.699624 1.05496 1.05496C0.699624 1.41029 0.5 1.89222 0.5 2.39474C0.5 14.5842 10.4158 24.5 22.6053 24.5ZM2.39474 1.76316H6.81579C6.98329 1.76316 7.14394 1.8297 7.26238 1.94814C7.38083 2.06659 7.44737 2.22723 7.44737 2.39474C7.44737 4.01158 7.7 5.59053 8.19263 7.09368C8.25579 7.27053 8.24316 7.52316 8.04105 7.72526L5.55263 10.2011C7.63684 14.2811 10.6937 17.3379 14.7863 19.4474L17.2495 16.9589C17.4263 16.7821 17.6663 16.7316 17.8937 16.7947C19.4095 17.3 20.9884 17.5526 22.6053 17.5526C22.7728 17.5526 22.9334 17.6192 23.0519 17.7376C23.1703 17.8561 23.2368 18.0167 23.2368 18.1842V22.6053C23.2368 22.7728 23.1703 22.9334 23.0519 23.0519C22.9334 23.1703 22.7728 23.2368 22.6053 23.2368C11.1105 23.2368 1.76316 13.8895 1.76316 2.39474C1.76316 2.22723 1.8297 2.06659 1.94814 1.94814C2.06659 1.8297 2.22723 1.76316 2.39474 1.76316Z" fill="#20BFDA"></path></svg> 